<svg width="207" height="30" viewBox="0 0 207 30" fill="none" xmlns="http://www.w3.org/2000/svg">
<path d="M197 0L205.66 22.5H188.34L197 0Z" fill="#F29193"/>
<path d="M180 0L188.66 22.5H171.34L180 0Z" fill="#F7B493"/>
<path d="M163 0L171.66 22.5H154.34L163 0Z" fill="#EBE67B"/>
<path d="M146 0L154.66 22.5H137.34L146 0Z" fill="#9DCE70"/>
<path d="M129 0L137.66 22.5H120.34L129 0Z" fill="#83C78F"/>
<path d="M112 0L120.66 22.5H103.34L112 0Z" fill="#53AA64"/>
<path d="M95.0001 0L103.66 22.5H86.3398L95.0001 0Z" fill="#73BEB3"/>
<path d="M78.0001 0L86.6604 22.5H69.3398L78.0001 0Z" fill="#87C6D6"/>
<path d="M61.0001 0L69.6604 22.5H52.3398L61.0001 0Z" fill="#8999CE"/>
<path d="M44.0001 0L52.6604 22.5H35.3398L44.0001 0Z" fill="#A087BF"/>
<path d="M27.0001 0L35.6604 22.5H18.3398L27.0001 0Z" fill="#D59BC3"/>
<path d="M10.0001 0L18.6604 22.5H1.33984L10.0001 0Z" fill="#EF8AA8"/>
</svg>
